<?xml version="1.0" encoding="utf-8"?>
<!-- Generator: Adobe Illustrator 27.5.0, SVG Export Plug-In . SVG Version: 6.00 Build 0)  -->
<svg version="1.1" xmlns="http://www.w3.org/2000/svg" xmlns:xlink="http://www.w3.org/1999/xlink" x="0px" y="0px"
	 viewBox="0 0 500 500" style="enable-background:new 0 0 500 500;" xml:space="preserve">
<g id="BACKGROUND">
	<rect style="fill:#CCF1FF;" width="500" height="500"/>
</g>
<g id="OBJECTS">
	<g>
		<defs>
			<rect id="SVGID_1_" width="500" height="500"/>
		</defs>
		<clipPath id="SVGID_00000041296725107588363230000017784669782342466441_">
			<use xlink:href="#SVGID_1_"  style="overflow:visible;"/>
		</clipPath>
		<g style="clip-path:url(#SVGID_00000041296725107588363230000017784669782342466441_);">
			<g>
				<path style="fill:#ABEBFF;" d="M166.367,58.825c-14.125,3.082-30.63,10.271-32.056,24.658
					c-0.687,6.93,2.533,13.555,4.565,20.215c2.032,6.661,2.562,14.795-2.365,19.716c-2.72,2.716-6.578,3.882-10.264,4.971
					c-22.786,6.732-46.28,14.727-63.032,31.576c-20.171,20.288-27.28,52.529-17.509,79.418c2.515,6.922,6.144,13.602,11.613,18.534
					c6.838,6.167,15.915,9.097,24.697,11.863c20.194,6.36,40.514,12.749,61.506,15.506c40.092,5.266,80.852-2.918,121.169,0.19
					c57.512,4.433,114.798,31.649,170.791,17.794c17.869-4.422,36.557-15.307,40.316-33.328c1.499-7.185,0.395-14.671-1.455-21.774
					c-2.325-8.928-5.894-17.665-11.61-24.907c-11.793-14.941-31.63-22.305-42.059-38.229c-7.462-11.393-8.971-26.463-3.916-39.109
					c2.372-5.934,6.096-11.39,7.339-17.658c1.79-9.031-1.985-18.492-8.05-25.419c-6.065-6.927-14.193-11.693-22.406-15.853
					c-25.141-12.734-52.283-18.806-79.854-23.647C265.813,54.923,214.511,48.314,166.367,58.825z"/>
				<path style="fill:#ABEBFF;" d="M65.845,86.398c-7.156,2.227-14.285,5.792-18.534,11.964c-4.25,6.172-4.666,15.431,0.688,20.675
					c2.03,1.988,4.675,3.245,7.386,4.096c10.492,3.291,21.821,0.87,32.543-1.568c4.783-1.088,9.648-2.206,13.901-4.65
					c12.952-7.442,14.621-24.986,1.195-32.806C93.572,78.603,75.402,83.424,65.845,86.398z"/>
				<path style="fill:#ABEBFF;" d="M437.341,184.72c4.106,3.072,8.468,5.964,13.393,7.394c4.925,1.429,10.536,1.226,14.823-1.587
					c3.23-2.119,5.496-5.652,6.075-9.473c0.192-1.269,0.206-2.572-0.036-3.833c-0.32-1.667-1.082-3.229-2.068-4.612
					c-3.779-5.298-10.195-7.573-15.115-11.55c-4.575-3.698-8.388-10.013-15.14-7.584C426.202,158.178,428.2,177.881,437.341,184.72z
					"/>
			</g>
			<path style="fill:#13628E;" d="M49.103,308.273c2.829-30.031,3.131-60.299,0.9-90.381c-0.489-6.588,0.081-13.484-2.191-19.807
				c-2.521-7.017-8.854-11.901-16.337-8.445c-3.666,1.693-6.447,4.89-8.51,8.361c-6.518,10.965-6.464,24.088-6.867,36.433
				c-0.761,23.301-1.522,46.602-2.283,69.903c1.737,1.668,3.907,3.02,5.971,4.262c5.781,3.478,12.826,4.014,19.572,4.083
				c1.793,0.018,3.627,0.003,5.315-0.601C46.361,311.478,48.935,310.058,49.103,308.273z"/>
			<path style="fill:#13628E;" d="M438.72,308.273c2.829-30.031,3.131-60.299,0.9-90.381c-0.488-6.588,0.081-13.484-2.191-19.807
				c-2.521-7.017-8.855-11.901-16.337-8.445c-3.666,1.693-6.447,4.89-8.51,8.361c-6.518,10.965-6.464,24.088-6.867,36.433
				c-0.761,23.301-1.522,46.602-2.283,69.903c1.737,1.668,3.907,3.02,5.971,4.262c5.781,3.478,12.826,4.014,19.572,4.083
				c1.793,0.018,3.627,0.003,5.315-0.601C435.979,311.478,438.552,310.058,438.72,308.273z"/>
			<path style="fill:#13628E;" d="M86.87,310.974c1.702-15.033,2.591-30.16,2.615-45.29c0.024-14.515-0.023-29.741-2.458-44.074
				c-0.025-0.145-0.051-0.289-0.076-0.434c-1.165-6.626-5.517-14.026-13.199-12.946c-6.785,0.954-12.964,7.177-15.528,13.282
				c-3.429,8.167-3.759,17.322-4.123,26.049c-0.835,20.046-1.67,40.093-2.505,60.139c1.732,1.43,3.897,2.586,5.957,3.647
				c5.77,2.974,12.812,3.413,19.558,3.451c1.793,0.01,3.627-0.009,5.317-0.534C84.119,313.74,86.696,312.51,86.87,310.974z"/>
			<path style="fill:#13628E;" d="M474.364,310.974c1.702-15.033,2.591-30.16,2.615-45.29c0.024-14.515-0.023-29.741-2.458-44.074
				c-0.025-0.145-0.051-0.289-0.076-0.434c-1.164-6.626-5.517-14.026-13.199-12.946c-6.785,0.954-12.964,7.177-15.527,13.282
				c-3.429,8.167-3.76,17.322-4.123,26.049c-0.835,20.046-1.67,40.093-2.505,60.139c1.732,1.43,3.898,2.586,5.957,3.647
				c5.77,2.974,12.812,3.413,19.558,3.451c1.793,0.01,3.627-0.009,5.317-0.534C471.613,313.74,474.19,312.51,474.364,310.974z"/>
			<rect y="296.391" style="fill:#CCF1FF;" width="500" height="203.609"/>
			<g>
				<g>
					
						<rect x="375.326" y="253.498" transform="matrix(-1 -1.224647e-16 1.224647e-16 -1 843.3203 571.3445)" style="fill:#73C2E5;" width="92.669" height="64.348"/>
					<path style="fill:#2380C1;" d="M446.377,281.998h14.013v-13.28c0-3.534-2.865-6.399-6.399-6.399h-1.216
						c-3.534,0-6.399,2.865-6.399,6.399V281.998z"/>
					<path style="fill:#2380C1;" d="M425.357,281.998h14.013v-13.28c0-3.534-2.865-6.399-6.399-6.399h-1.216
						c-3.534,0-6.399,2.865-6.399,6.399V281.998z"/>
					<path style="fill:#2380C1;" d="M404.337,281.998h14.013v-13.28c0-3.534-2.865-6.399-6.399-6.399h-1.216
						c-3.534,0-6.399,2.865-6.399,6.399V281.998z"/>
					
						<rect x="373.124" y="300.835" transform="matrix(-1 -1.224647e-16 1.224647e-16 -1 842.6091 606.7377)" style="fill:#2380C1;" width="96.36" height="5.069"/>
					
						<rect x="376.983" y="285.605" transform="matrix(-1 -1.224647e-16 1.224647e-16 -1 844.1764 572.1612)" style="fill:#CAEFFF;" width="90.209" height="0.952"/>
					
						<rect x="375.441" y="253.915" transform="matrix(-1 -1.224647e-16 1.224647e-16 -1 843.3677 512.6046)" style="fill:#74A6E2;" width="92.486" height="4.775"/>
					
						<rect x="375.441" y="305.765" transform="matrix(-1 -1.224647e-16 1.224647e-16 -1 843.3677 616.3051)" style="fill:#74A6E2;" width="92.486" height="4.775"/>
					
						<rect x="375.421" y="235.704" transform="matrix(-1 -1.224647e-16 1.224647e-16 -1 790.3439 553.5501)" style="opacity:0.46;fill:#74A6E2;" width="39.501" height="82.142"/>
					
						<rect x="304.085" y="204.578" transform="matrix(-1 -1.224647e-16 1.224647e-16 -1 700.839 522.4239)" style="fill:#73C2E5;" width="92.669" height="113.268"/>
					<path style="fill:#2380C1;" d="M375.136,234.445h14.013v-13.28c0-3.534-2.865-6.399-6.399-6.399h-1.216
						c-3.534,0-6.399,2.865-6.399,6.399V234.445z"/>
					<path style="fill:#2380C1;" d="M354.116,234.445h14.013v-13.28c0-3.534-2.865-6.399-6.399-6.399h-1.216
						c-3.534,0-6.399,2.865-6.399,6.399V234.445z"/>
					<path style="fill:#2380C1;" d="M333.096,234.445h14.013v-13.28c0-3.534-2.865-6.399-6.399-6.399h-1.216
						c-3.534,0-6.399,2.865-6.399,6.399V234.445z"/>
					<path style="fill:#2380C1;" d="M312.076,234.445h14.013v-13.28c0-3.534-2.865-6.399-6.399-6.399h-1.216
						c-3.534,0-6.399,2.865-6.399,6.399V234.445z"/>
					<path style="fill:#2380C1;" d="M375.136,281.998h14.013v-13.28c0-3.534-2.865-6.399-6.399-6.399h-1.216
						c-3.534,0-6.399,2.865-6.399,6.399V281.998z"/>
					<path style="fill:#2380C1;" d="M354.116,281.998h14.013v-13.28c0-3.534-2.865-6.399-6.399-6.399h-1.216
						c-3.534,0-6.399,2.865-6.399,6.399V281.998z"/>
					<path style="fill:#2380C1;" d="M333.096,281.998h14.013v-13.28c0-3.534-2.865-6.399-6.399-6.399h-1.216
						c-3.534,0-6.399,2.865-6.399,6.399V281.998z"/>
					<path style="fill:#2380C1;" d="M312.076,281.998h14.013v-13.28c0-3.534-2.865-6.399-6.399-6.399h-1.216
						c-3.534,0-6.399,2.865-6.399,6.399V281.998z"/>
					
						<rect x="301.884" y="248.873" transform="matrix(-1 -1.224647e-16 1.224647e-16 -1 700.1277 502.8153)" style="fill:#2380C1;" width="96.36" height="5.069"/>
					
						<rect x="301.884" y="300.835" transform="matrix(-1 -1.224647e-16 1.224647e-16 -1 700.1277 606.7377)" style="fill:#2380C1;" width="96.36" height="5.069"/>
					<polygon style="fill:#2380C1;" points="304.11,206.76 398.527,206.76 391.734,179.722 304.11,179.722 					"/>
					
						<rect x="305.743" y="238.12" transform="matrix(-1 -1.224647e-16 1.224647e-16 -1 701.6951 477.1915)" style="fill:#CAEFFF;" width="90.209" height="0.952"/>
					
						<rect x="305.743" y="285.605" transform="matrix(-1 -1.224647e-16 1.224647e-16 -1 701.6951 572.1612)" style="fill:#CAEFFF;" width="90.209" height="0.952"/>
					<g>
						<path style="fill:#F8FDFF;" d="M365.229,203.837h12.113v-3.258c0-4.891-3.965-8.855-8.855-8.855h-3.258V203.837z"/>
						
							<rect x="365.253" y="183.503" transform="matrix(-1 -1.224647e-16 1.224647e-16 -1 732.6758 379.5545)" style="fill:#F8FDFF;" width="2.169" height="12.549"/>
					</g>
					<g>
						<path style="fill:#F8FDFF;" d="M338.23,203.837h-12.113v-3.258c0-4.891,3.965-8.855,8.855-8.855h3.258V203.837z"/>
						<rect x="336.036" y="183.503" style="fill:#F8FDFF;" width="2.169" height="12.549"/>
					</g>
					
						<ellipse transform="matrix(0.9736 -0.2284 0.2284 0.9736 -33.0813 85.2877)" style="fill:#F8FDFF;" cx="351.943" cy="185.571" rx="13.854" ry="13.854"/>
					
						<rect x="337.058" y="183.502" transform="matrix(-1 -1.224647e-16 1.224647e-16 -1 702.6662 387.3226)" style="fill:#94CBEA;" width="28.55" height="20.319"/>
					<path style="fill:#2380C1;" d="M344.844,202.199h14.013V193.6c0-3.534-2.865-6.399-6.399-6.399h-1.216
						c-3.534,0-6.399,2.865-6.399,6.399V202.199z"/>
					
						<rect x="304.106" y="206.57" transform="matrix(-1 -1.224647e-16 1.224647e-16 -1 700.7919 417.9159)" style="fill:#74A6E2;" width="92.58" height="4.775"/>
					
						<rect x="304.2" y="253.915" transform="matrix(-1 -1.224647e-16 1.224647e-16 -1 700.8863 512.6046)" style="fill:#74A6E2;" width="92.486" height="4.775"/>
					
						<rect x="304.2" y="305.765" transform="matrix(-1 -1.224647e-16 1.224647e-16 -1 700.8863 616.3051)" style="fill:#74A6E2;" width="92.486" height="4.775"/>
					
						<rect x="304.181" y="179.809" transform="matrix(-1 -1.224647e-16 1.224647e-16 -1 637.6834 497.6552)" style="opacity:0.46;fill:#74A6E2;" width="29.322" height="138.037"/>
					<polygon style="fill:#2380C1;" points="396.686,253.915 468.186,253.915 460.455,235.451 396.686,235.451 					"/>
				</g>
				<rect x="37.751" y="253.498" style="fill:#73C2E5;" width="92.669" height="64.348"/>
				<path style="fill:#2380C1;" d="M59.369,281.998H45.356v-13.28c0-3.534,2.865-6.399,6.399-6.399h1.216
					c3.534,0,6.399,2.865,6.399,6.399V281.998z"/>
				<path style="fill:#2380C1;" d="M80.389,281.998H66.376v-13.28c0-3.534,2.865-6.399,6.399-6.399h1.216
					c3.534,0,6.399,2.865,6.399,6.399V281.998z"/>
				<path style="fill:#2380C1;" d="M101.409,281.998H87.396v-13.28c0-3.534,2.865-6.399,6.399-6.399h1.216
					c3.534,0,6.399,2.865,6.399,6.399V281.998z"/>
				<rect x="36.261" y="300.835" style="fill:#2380C1;" width="96.36" height="5.069"/>
				<rect x="38.553" y="285.605" style="fill:#CAEFFF;" width="90.209" height="0.952"/>
				<rect x="37.819" y="253.915" style="fill:#74A6E2;" width="92.486" height="4.775"/>
				<rect x="37.819" y="305.765" style="fill:#74A6E2;" width="92.486" height="4.775"/>
				<rect x="90.824" y="235.704" style="opacity:0.46;fill:#74A6E2;" width="39.501" height="82.142"/>
				<rect x="108.992" y="204.578" style="fill:#73C2E5;" width="92.669" height="113.268"/>
				<path style="fill:#2380C1;" d="M130.61,234.445h-14.013v-13.28c0-3.534,2.865-6.399,6.399-6.399h1.216
					c3.534,0,6.399,2.865,6.399,6.399V234.445z"/>
				<path style="fill:#2380C1;" d="M151.63,234.445h-14.013v-13.28c0-3.534,2.865-6.399,6.399-6.399h1.216
					c3.534,0,6.399,2.865,6.399,6.399V234.445z"/>
				<path style="fill:#2380C1;" d="M172.65,234.445h-14.013v-13.28c0-3.534,2.865-6.399,6.399-6.399h1.216
					c3.534,0,6.399,2.865,6.399,6.399V234.445z"/>
				<path style="fill:#2380C1;" d="M193.669,234.445h-14.013v-13.28c0-3.534,2.865-6.399,6.399-6.399h1.216
					c3.534,0,6.399,2.865,6.399,6.399V234.445z"/>
				<path style="fill:#2380C1;" d="M130.61,281.998h-14.013v-13.28c0-3.534,2.865-6.399,6.399-6.399h1.216
					c3.534,0,6.399,2.865,6.399,6.399V281.998z"/>
				<path style="fill:#2380C1;" d="M151.63,281.998h-14.013v-13.28c0-3.534,2.865-6.399,6.399-6.399h1.216
					c3.534,0,6.399,2.865,6.399,6.399V281.998z"/>
				<path style="fill:#2380C1;" d="M172.65,281.998h-14.013v-13.28c0-3.534,2.865-6.399,6.399-6.399h1.216
					c3.534,0,6.399,2.865,6.399,6.399V281.998z"/>
				<path style="fill:#2380C1;" d="M193.669,281.998h-14.013v-13.28c0-3.534,2.865-6.399,6.399-6.399h1.216
					c3.534,0,6.399,2.865,6.399,6.399V281.998z"/>
				<rect x="107.502" y="248.873" style="fill:#2380C1;" width="96.36" height="5.069"/>
				<rect x="107.502" y="300.835" style="fill:#2380C1;" width="96.36" height="5.069"/>
				<polygon style="fill:#2380C1;" points="201.636,206.76 107.219,206.76 114.012,179.722 201.636,179.722 				"/>
				<rect x="109.794" y="238.12" style="fill:#CAEFFF;" width="90.209" height="0.952"/>
				<rect x="109.794" y="285.605" style="fill:#CAEFFF;" width="90.209" height="0.952"/>
				<g>
					<path style="fill:#F8FDFF;" d="M140.517,203.837h-12.113v-3.258c0-4.891,3.965-8.855,8.855-8.855h3.258V203.837z"/>
					<rect x="138.324" y="183.503" style="fill:#F8FDFF;" width="2.169" height="12.549"/>
				</g>
				<g>
					<path style="fill:#F8FDFF;" d="M167.516,203.837h12.113v-3.258c0-4.891-3.965-8.855-8.855-8.855h-3.258V203.837z"/>
					
						<rect x="167.541" y="183.503" transform="matrix(-1 -1.224647e-16 1.224647e-16 -1 337.2506 379.5545)" style="fill:#F8FDFF;" width="2.169" height="12.549"/>
				</g>
				
					<ellipse transform="matrix(0.2284 -0.9736 0.9736 0.2284 -61.9908 292.9247)" style="fill:#F8FDFF;" cx="153.803" cy="185.571" rx="13.854" ry="13.854"/>
				<ellipse style="fill:#F8FDFF;" cx="252.754" cy="171.162" rx="24.713" ry="23.983"/>
				<rect x="140.138" y="183.502" style="fill:#94CBEA;" width="28.55" height="20.319"/>
				<path style="fill:#2380C1;" d="M160.901,202.199h-14.013V193.6c0-3.534,2.865-6.399,6.399-6.399h1.216
					c3.534,0,6.399,2.865,6.399,6.399V202.199z"/>
				<rect x="109.06" y="206.57" style="fill:#74A6E2;" width="92.58" height="4.775"/>
				<rect x="109.06" y="253.915" style="fill:#74A6E2;" width="92.486" height="4.775"/>
				<rect x="109.06" y="305.765" style="fill:#74A6E2;" width="92.486" height="4.775"/>
				<rect x="172.243" y="179.809" style="opacity:0.46;fill:#74A6E2;" width="29.322" height="138.037"/>
				<rect x="198.205" y="206.246" style="fill:#73C2E5;" width="111.206" height="51.925"/>
				<rect x="197.987" y="253.467" style="fill:#2380C1;" width="111.412" height="4.923"/>
				<rect x="198.205" y="258.289" style="fill:#73C2E5;" width="111.206" height="51.925"/>
				<rect x="198.205" y="310.086" style="fill:#73C2E5;" width="111.206" height="16.295"/>
				<rect x="197.987" y="305.509" style="fill:#2380C1;" width="111.412" height="4.923"/>
				<rect x="193.347" y="322.27" style="fill:#74A6E2;" width="122.572" height="7.723"/>
				<rect x="188.044" y="328.408" style="fill:#73C2E5;" width="133.325" height="7.723"/>
				<rect x="226.318" y="260.969" style="fill:#2380C1;" width="53.052" height="61.203"/>
				<rect x="218.319" y="257.524" style="fill:#13628E;" width="64.364" height="3.875"/>
				<rect x="215.9" y="258.081" style="fill:#F8FDFF;" width="11.245" height="64.378"/>
				<rect x="221.41" y="261.495" style="fill:#97CBFF;" width="1.185" height="61.09"/>
				<rect x="218.147" y="261.495" style="fill:#97CBFF;" width="1.184" height="61.09"/>
				<g>
					<rect x="277.645" y="258.081" style="fill:#F8FDFF;" width="11.245" height="64.378"/>
				</g>
				<rect x="282.536" y="261.495" style="fill:#97CBFF;" width="1.184" height="61.09"/>
				<g>
					<path style="fill:#74A6E2;" d="M218.761,260.731c0,1.773-1.437,3.21-3.21,3.21s-3.21-1.437-3.21-3.21
						c0-1.773,1.437-3.21,3.21-3.21S218.761,258.958,218.761,260.731z"/>
					<path style="fill:#74A6E2;" d="M230.889,260.731c0,1.773-1.437,3.21-3.21,3.21c-1.773,0-3.21-1.437-3.21-3.21
						c0-1.773,1.437-3.21,3.21-3.21C229.452,257.521,230.889,258.958,230.889,260.731z"/>
					<rect x="215.257" y="257.538" style="fill:#74A6E2;" width="12.857" height="3.996"/>
					<circle style="fill:#97CBFF;" cx="215.417" cy="260.803" r="1.494"/>
					<circle style="fill:#97CBFF;" cx="227.61" cy="260.803" r="1.494"/>
				</g>
				<path style="fill:#2380C1;" d="M294.559,243.413h-14.013v-20.521c0-3.534,2.865-6.399,6.399-6.399h1.216
					c3.534,0,6.399,2.865,6.399,6.399V243.413z"/>
				<path style="fill:#2380C1;" d="M271.676,243.413h-14.013v-20.521c0-3.534,2.865-6.399,6.399-6.399h1.216
					c3.534,0,6.399,2.865,6.399,6.399V243.413z"/>
				<path style="fill:#2380C1;" d="M248.793,243.413H234.78v-20.521c0-3.534,2.865-6.399,6.399-6.399h1.216
					c3.534,0,6.399,2.865,6.399,6.399V243.413z"/>
				<path style="fill:#2380C1;" d="M225.91,243.413h-14.013v-20.521c0-3.534,2.865-6.399,6.399-6.399h1.216
					c3.534,0,6.399,2.865,6.399,6.399V243.413z"/>
				<rect x="200.838" y="246.549" style="fill:#CAEFFF;" width="103.629" height="1.043"/>
				<rect x="195.682" y="171.304" style="fill:#2380C1;" width="115.028" height="35.325"/>
				<rect x="227.962" y="167.571" style="fill:#73C2E5;" width="49.396" height="39.563"/>
				<rect x="198.146" y="206.57" style="fill:#74A6E2;" width="111.239" height="4.775"/>
				<rect x="227.861" y="171.115" style="fill:#74A6E2;" width="49.605" height="4.775"/>
				<path style="fill:#2380C1;" d="M259.479,198.789h-14.013v-13.28c0-3.534,2.865-6.399,6.399-6.399h1.216
					c3.534,0,6.399,2.865,6.399,6.399V198.789z"/>
				<g>
					<path style="fill:#F8FDFF;" d="M227.979,206.588h-17.823v-1.81c0-8.844,7.169-16.013,16.013-16.013h1.81V206.588z"/>
					<rect x="224.751" y="167.578" style="fill:#F8FDFF;" width="3.192" height="27.553"/>
				</g>
				<g>
					<path style="fill:#F8FDFF;" d="M277.229,206.588h17.823v-1.81c0-8.844-7.169-16.013-16.013-16.013h-1.81V206.588z"/>
					
						<rect x="277.266" y="167.578" transform="matrix(-1 -1.224647e-16 1.224647e-16 -1 557.7229 362.7101)" style="fill:#F8FDFF;" width="3.192" height="27.553"/>
				</g>
				<polygon style="fill:#2380C1;" points="109.06,253.915 37.56,253.915 45.291,235.451 109.06,235.451 				"/>
				<rect x="285.799" y="261.495" style="fill:#97CBFF;" width="1.184" height="61.09"/>
			</g>
			<path style="fill:#2380C1;" d="M-14.03,293.028c2.621-2.323,5.708-4.503,9.608-5.927c6.204-2.266,13.964-2.377,20.804-1.041
				c6.84,1.336,12.866,3.997,18.22,7.015c5.007,2.823,9.748,6.076,16.036,7.533c4.461,1.034,9.313,1.065,14.055,1.221
				c10.009,0.33,20.773,1.524,27.701,6.128c2.767,1.839,4.872,4.192,8.41,5.384c3.213,1.082,7.032,1.01,10.661,1.143
				c10.097,0.371,20.739,2.861,26.287,8.237h-7.216h-18.733H-25.631v-3.895C-24.503,309.828-22.486,300.525-14.03,293.028z"/>
			<path style="fill:#2380C1;" d="M498.701,293.028c-2.621-2.323-5.708-4.503-9.608-5.927c-6.204-2.266-13.964-2.377-20.804-1.041
				c-6.84,1.336-12.866,3.997-18.22,7.015c-5.007,2.823-9.748,6.076-16.036,7.533c-4.461,1.034-9.313,1.065-14.055,1.221
				c-10.009,0.33-20.773,1.524-27.701,6.128c-2.767,1.839-4.872,4.192-8.41,5.384c-3.212,1.082-7.031,1.01-10.661,1.143
				c-10.097,0.371-20.739,2.861-26.287,8.237h7.216h18.733h137.432v-3.895C509.174,309.828,507.157,300.525,498.701,293.028z"/>
			<g>
				<path style="fill:#74A6E2;" d="M279.85,260.731c0,1.773-1.437,3.21-3.21,3.21c-1.773,0-3.21-1.437-3.21-3.21
					c0-1.773,1.437-3.21,3.21-3.21C278.413,257.521,279.85,258.958,279.85,260.731z"/>
				<path style="fill:#74A6E2;" d="M291.979,260.731c0,1.773-1.437,3.21-3.21,3.21s-3.21-1.437-3.21-3.21
					c0-1.773,1.437-3.21,3.21-3.21S291.979,258.958,291.979,260.731z"/>
				<rect x="276.347" y="257.538" style="fill:#74A6E2;" width="12.857" height="3.996"/>
				<circle style="fill:#97CBFF;" cx="276.506" cy="260.803" r="1.494"/>
				<circle style="fill:#97CBFF;" cx="288.7" cy="260.803" r="1.494"/>
			</g>
			<path style="fill:#F8FDFF;" d="M308.25,95.09c9.141-1.591,16.709-7.919,25.448-11.035c8.393-2.993,18.078-2.811,25.916,1.43
				c4.972,2.69,9.04,6.857,14.083,9.41c8.927,4.52,19.574,3.409,29.44,1.735c9.866-1.674,20.121-3.785,29.723-0.97
				c10.905,3.196,19.657,13.026,21.379,24.259c-23.579,0-47.158,0-70.737,0c-34.28,0-77.276,0-111.556,0
				c-1.392,0-1.068-5.984-1.02-6.678c0.493-7.239,3.912-13.09,10.958-15.721C290.315,94.371,299.546,96.606,308.25,95.09z"/>
			<path style="fill:#F8FDFF;" d="M92.554,137.424c5.19-0.581,9.487-2.892,14.45-4.03c4.766-1.093,10.265-1.027,14.715,0.522
				c2.823,0.982,5.133,2.504,7.997,3.437c5.069,1.651,11.114,1.245,16.716,0.634c5.602-0.611,11.425-1.382,16.877-0.354
				c6.192,1.167,11.161,4.758,12.139,8.86c-13.388,0-26.777,0-40.165,0c-19.464,0-43.878,0-63.343,0
				c-0.79,0-0.606-2.186-0.579-2.439c0.28-2.644,2.221-4.781,6.222-5.742C82.37,137.162,87.612,137.978,92.554,137.424z"/>
			<path style="fill:#F8FDFF;" d="M406.715,65.97c5.19-0.581,9.487-2.892,14.45-4.03c4.766-1.093,10.265-1.026,14.715,0.522
				c2.823,0.982,5.133,2.504,7.996,3.437c5.069,1.651,11.115,1.245,16.716,0.634c5.602-0.611,11.425-1.382,16.877-0.354
				c6.192,1.167,11.161,4.758,12.139,8.86c-13.388,0-26.777,0-40.165,0c-19.465,0-43.878,0-63.343,0
				c-0.79,0-0.606-2.186-0.579-2.439c0.28-2.644,2.221-4.781,6.222-5.742C396.531,65.708,401.772,66.524,406.715,65.97z"/>
			<path style="fill:#F8FDFF;" d="M150.803,108.337c5.19-0.581,9.487-2.892,14.45-4.03c4.766-1.093,10.265-1.027,14.715,0.522
				c2.823,0.982,5.133,2.504,7.997,3.437c5.069,1.651,11.115,1.245,16.716,0.634c5.602-0.611,11.425-1.382,16.877-0.354
				c6.192,1.168,11.162,4.758,12.139,8.86c-13.388,0-26.777,0-40.165,0c-19.465,0-43.878,0-63.343,0
				c-0.79,0-0.606-2.186-0.579-2.439c0.28-2.644,2.221-4.781,6.222-5.742C140.619,108.074,145.861,108.891,150.803,108.337z"/>
		</g>
		<path style="clip-path:url(#SVGID_00000041296725107588363230000017784669782342466441_);fill:#73C2E5;" d="M18.806,340.543
			c9.62-2.908,20.413-3.057,30.714-1.819c5.421,0.651,11.036,1.779,15.07,4.644c4.17,2.962,6,7.288,8.335,11.239
			c2.336,3.951,5.876,8.02,11.373,9.115c4.153,0.827,8.587-0.24,12.778,0.458c5.074,0.845,9.139,4.513,9.367,8.452
			c0.068,1.177-0.17,2.362,0.051,3.53c0.569,3.01,4.103,5.296,7.867,6.341c3.764,1.046,7.831,1.139,11.786,1.574
			c12.736,1.403,24.756,6.603,32.917,14.243c-1.053,0.01-2.112-0.079-3.165-0.108l-6.522-0.178c-4.574,0.4-9.125,1.24-13.736,1.114
			L-6.429,395.27l0.517-18.926c0.799,0.022,1.609,0.111,2.366-0.073c-0.127-3.944-0.255-7.889-0.382-11.833
			c-0.05-1.56-0.056-3.238,1.115-4.505c1.809-1.957,1.218-2.959,1.942-5.133c0.745-2.239,3.049-4.527,4.95-6.261
			C7.976,344.984,13.151,342.252,18.806,340.543z"/>
		<path style="clip-path:url(#SVGID_00000041296725107588363230000017784669782342466441_);fill:#73C2E5;" d="M414.217,355.635
			c9.62-2.908,20.413-3.057,30.714-1.819c5.421,0.652,11.036,1.779,15.07,4.644c4.17,2.961,6,7.288,8.335,11.239
			c2.335,3.951,5.876,8.02,11.373,9.115c4.153,0.827,8.587-0.24,12.778,0.458c5.074,0.845,9.139,4.513,9.367,8.453
			c0.068,1.177-0.17,2.362,0.051,3.53c0.569,3.01,4.103,5.296,7.867,6.341c3.764,1.046,7.831,1.139,11.786,1.574
			c12.736,1.403,24.756,6.603,32.917,14.243c-1.053,0.01-2.112-0.079-3.166-0.108l-6.522-0.178c-4.574,0.4-9.125,1.24-13.736,1.114
			l-142.069-3.879l0.517-18.926c0.798,0.022,1.609,0.111,2.366-0.073c-0.127-3.944-0.255-7.889-0.382-11.833
			c-0.05-1.56-0.056-3.238,1.115-4.505c1.81-1.957,1.218-2.959,1.942-5.133c0.745-2.239,3.049-4.527,4.95-6.261
			C403.388,360.076,408.563,357.344,414.217,355.635z"/>
		<path style="clip-path:url(#SVGID_00000041296725107588363230000017784669782342466441_);fill:#2380C1;" d="M-19.324,367.041
			c16.913-5.819,35.467-5.328,52.991-1.748c9.222,1.884,18.712,4.857,25.253,11.625c6.763,6.997,9.321,16.892,12.799,25.98
			c3.478,9.088,9.011,18.533,18.303,21.422c7.02,2.182,14.779,0.117,21.882,2.012c8.6,2.294,15.086,10.876,14.946,19.775
			c-0.042,2.66-0.61,5.312-0.388,7.963c0.572,6.831,6.333,12.254,12.656,14.9c6.324,2.646,13.294,3.168,20.028,4.453
			c21.682,4.138,41.623,16.785,54.61,34.634c-1.81-0.058-3.616-0.339-5.422-0.485l-11.176-0.901
			c-7.909,0.551-15.837,2.098-23.739,1.46L-70.033,488.5l3.438-42.632c1.368,0.11,2.748,0.374,4.074,0.016
			c0.313-8.903,0.626-17.806,0.939-26.709c0.124-3.52,0.34-7.304,2.521-10.071c3.371-4.275,2.491-6.578,4.027-11.425
			c1.581-4.991,5.847-9.974,9.344-13.737C-38.519,376.224-29.265,370.462-19.324,367.041z"/>
		<path style="clip-path:url(#SVGID_00000041296725107588363230000017784669782342466441_);fill:#06375B;" d="M-1.374,396.837
			c16.913-5.819,35.467-5.328,52.991-1.748c9.222,1.884,18.712,4.857,25.253,11.625c6.763,6.997,9.321,16.892,12.799,25.98
			c3.478,9.088,9.011,18.533,18.303,21.422c7.02,2.182,14.779,0.117,21.882,2.012c8.6,2.294,15.086,10.876,14.946,19.775
			c-0.042,2.66-0.61,5.312-0.388,7.963c0.572,6.831,6.333,12.254,12.656,14.9c6.324,2.646,13.294,3.168,20.028,4.453
			c21.682,4.138,41.623,16.785,54.61,34.634c-1.81-0.058-3.616-0.339-5.422-0.485l-11.176-0.901
			c-7.909,0.551-15.837,2.097-23.739,1.46l-243.452-19.631l3.438-42.632c1.368,0.11,2.748,0.374,4.074,0.016
			c0.313-8.903,0.626-17.806,0.939-26.709c0.124-3.52,0.34-7.304,2.521-10.071c3.371-4.275,2.491-6.578,4.027-11.425
			c1.581-4.991,5.847-9.974,9.344-13.737C-20.569,406.021-11.315,400.258-1.374,396.837z"/>
		<g style="clip-path:url(#SVGID_00000041296725107588363230000017784669782342466441_);">
			<g>
				<g>
					<g>
						<polygon style="fill:#07467C;" points="453.057,292.812 402.769,270.64 338.645,270.446 293.471,293.698 241.007,372.237 
							285.744,369.381 276.826,504.098 292.312,505.329 475.549,504.125 						"/>
						<g>
							<g>
								<g>
									<path style="fill:#F8FDFF;" d="M340.551,181.018l-1.911,88.28c-0.008,0.385-0.001,0.766,0.005,1.147l64.124,0.194
										l1.911-88.28L340.551,181.018z"/>
									<path style="fill:#DBDFFF;" d="M369.216,301.486l0.038-0.035c-0.025-0.001-0.051-0.002-0.076-0.004L369.216,301.486z"/>
									<path style="fill:#F8FDFF;" d="M338.645,270.565l30.533,30.883c0.026,0.001,0.051,0.003,0.076,0.004l33.515-30.812
										l-64.124-0.194C338.645,270.485,338.645,270.525,338.645,270.565z"/>
								</g>
								<path style="fill:#F8FDFF;" d="M407.219,238.23L407.219,238.23c4.283,0.089,7.829-3.251,7.92-7.461l0.154-7.097
									c0.091-4.21-3.307-7.695-7.59-7.785l0,0c-4.283-0.09-7.829,3.251-7.92,7.461l-0.154,7.097
									C399.538,234.655,402.936,238.141,407.219,238.23z"/>
								<polygon style="fill:#F8FDFF;" points="331.123,256.559 393.505,257.864 395.167,182.447 332.784,181.142 								"/>
							</g>
							<path style="opacity:0.46;fill:#74A6E2;" d="M360.954,270.513l17.661-12.66l-39.702-1.147l-0.274,12.6
								c-0.008,0.382-0.001,0.761,0.005,1.141L360.954,270.513z"/>
							<g>
								<path style="fill:#07467C;" d="M367.426,228.637c-0.098,0-0.194-0.001-0.292-0.002c-3.613-0.076-6.98-1.531-9.483-4.099
									c-2.51-2.575-3.85-5.959-3.773-9.529c0.158-7.26,6.204-13.061,13.54-13.061c0.097,0,0.194,0.001,0.291,0.003
									c3.613,0.076,6.98,1.531,9.483,4.098c2.51,2.575,3.85,5.959,3.773,9.529C380.807,222.837,374.761,228.637,367.426,228.637z
									 M355.611,215.045l1.734,0.038c-0.058,2.632,0.933,5.13,2.789,7.033c1.863,1.911,4.375,2.994,7.072,3.051
									c0.073,0.002,0.146,0.002,0.219,0.002c5.458,0,9.955-4.293,10.071-9.667c0.058-2.632-0.933-5.129-2.789-7.033
									c-1.863-1.911-4.375-2.995-7.072-3.052c-5.513-0.083-10.172,4.22-10.29,9.665L355.611,215.045z"/>
							</g>
							<g>
								<path style="fill:#07467C;" d="M333.719,227.932c-0.098,0-0.194-0.001-0.293-0.002c-3.612-0.076-6.98-1.531-9.483-4.097
									c-2.51-2.576-3.85-5.959-3.773-9.53c0.16-7.355,6.347-13.2,13.831-13.057c3.612,0.075,6.98,1.531,9.483,4.098
									c2.51,2.575,3.85,5.959,3.773,9.529C347.1,222.131,341.054,227.932,333.719,227.932z M333.71,204.71
									c-5.458,0-9.955,4.293-10.071,9.668l0,0c-0.058,2.631,0.933,5.129,2.789,7.033c1.863,1.911,4.375,2.995,7.072,3.05
									c0.072,0.002,0.146,0.002,0.218,0.002c5.459,0,9.956-4.292,10.073-9.667c0.058-2.632-0.933-5.129-2.789-7.033
									c-1.863-1.912-4.375-2.995-7.072-3.051C333.856,204.711,333.784,204.71,333.71,204.71z"/>
							</g>
							<polygon style="fill:#07467C;" points="338.645,270.446 366.373,386.022 402.769,270.64 369.178,301.448 							"/>
						</g>
					</g>
					<g>
						<polygon style="fill:#07467C;" points="386.302,179.413 314.819,136.102 389.492,118.796 460.096,162.741 						"/>
						<path style="fill:#2380C1;" d="M354.311,149.517l-2.79,21.367c0,0,16.383-1.819,59.313,10.901l2.256-21.67
							C413.09,160.115,390.135,146.834,354.311,149.517z"/>
						<path style="fill:none;stroke:#07467C;stroke-miterlimit:10;" d="M317.611,136.327c-2.793-0.226-1.949,4.327-1.739,6.654
							c0.387,4.285,2.705,8.343,2.356,12.631c-0.359,4.413-3.43,8.045-5.508,11.954c-2.926,5.503-3.953,11.992-2.871,18.13"/>
						<rect x="306.684" y="185.013" style="fill:#FFC234;" width="6.213" height="2.61"/>
						<polygon style="fill:#FFC234;" points="307.806,186.514 305.825,199.558 313.998,199.723 311.769,186.349 						"/>
					</g>
					<path style="fill:#07467C;" d="M325.163,194.47c-0.002,0.433,61.878,5.337,70.677-14.28c0,0-6.159-14.538-25.343-14.538
						C370.497,165.653,325.356,156.55,325.163,194.47z"/>
					<path style="fill:#07467C;" d="M391.711,175.862c-5.422,6.176-6.194,15.489-3.544,23.269c2.65,7.78,8.246,14.223,14.41,19.659
						c4.566-2.334,6.902-6.483,8.93-11.193c1.912-4.441,3.532-9.094,3.796-13.922s-0.957-9.892-4.156-13.518
						c-2.74-3.106-6.758-4.94-10.87-5.435c-4.112-0.495-8.31,0.276-12.176,1.764"/>
				</g>
				<polygon style="fill:#06375B;" points="430.17,318.841 364.691,503.077 441.151,505.11 				"/>
				<polygon style="opacity:0.29;fill:#176EAF;" points="293.471,293.698 334.623,281.237 369.178,301.448 276.826,504.098 
					311.472,312.037 311.472,312.037 				"/>
			</g>
			<path style="fill:#07467C;" d="M232.166,374.748c0,0-37.832,53.222,10.498,76.201c0,0,34.601,7.331,46.142-17.144"/>
			<g>
				<rect x="232.133" y="349.967" style="fill:#CCE6FF;" width="149" height="88.96"/>
				<path style="fill:none;stroke:#FFC234;stroke-miterlimit:10;" d="M371.595,434.09H240.848c0-2.209-1.791-4-4-4v-71.183
					c2.209,0,4-1.791,4-4h130.748c0,2.209,1.791,4,4,4v71.183C373.386,430.09,371.595,431.88,371.595,434.09z"/>
				<g>
					<rect x="260.471" y="391.976" style="fill:#5291CE;" width="90.739" height="7.051"/>
					<rect x="260.471" y="404.037" style="fill:#5291CE;" width="90.739" height="1.645"/>
					<rect x="280.551" y="377.574" style="fill:#5291CE;" width="49.859" height="5.179"/>
					<rect x="260.471" y="407.377" style="fill:#5291CE;" width="90.739" height="1.645"/>
					<rect x="260.471" y="410.717" style="fill:#5291CE;" width="90.739" height="1.645"/>
					<rect x="260.471" y="421.923" style="fill:#5291CE;" width="36.66" height="1.387"/>
					<rect x="314.655" y="421.923" style="fill:#5291CE;" width="36.66" height="1.387"/>
					<circle style="fill:#5291CE;" cx="305.48" cy="369.636" r="5.381"/>
				</g>
			</g>
			<polygon style="fill:#F8FDFF;" points="226.012,376.779 218.512,400.78 227.298,417.067 249.799,415.781 254.085,407.423 
				254.514,399.066 242.085,382.35 			"/>
			<polygon style="fill:#74A6E2;" points="232.166,374.748 226.012,376.779 232.081,378.883 			"/>
			<polygon style="opacity:0.46;fill:#74A6E2;" points="226.012,376.779 227.298,417.067 218.512,400.78 			"/>
		</g>
	</g>
</g>
<g id="DESIGNED_BY_FREEPIK">
	<g>
		<g id="XMLID_2_">
			<g id="XMLID_1043_">
				<path id="XMLID_1051_" style="fill:#1C252C;" d="M260.104,465.465c-0.432,0.443-0.803,0.931-1.108,1.453l-0.465-0.241
					c-0.067-0.298-0.349-0.503-0.659-0.466c-0.331,0.039-0.568,0.339-0.529,0.67c0.039,0.331,0.339,0.568,0.67,0.529
					c0.066-0.008,0.127-0.026,0.184-0.052l0.451,0.234c-0.251,0.554-0.433,1.139-0.539,1.744l0.747,0.132
					c0.23-1.306,0.85-2.507,1.792-3.473L260.104,465.465z"/>
				<path id="XMLID_1050_" style="fill:#1C252C;" d="M265.592,463.163c-0.171,0-0.341,0.006-0.51,0.017l-0.074-0.626
					c0.188-0.149,0.296-0.389,0.266-0.645c-0.046-0.393-0.402-0.674-0.795-0.628c-0.393,0.046-0.674,0.402-0.628,0.795
					c0.03,0.254,0.189,0.461,0.404,0.564l0.074,0.624c-0.714,0.116-1.403,0.332-2.06,0.646l0.327,0.684
					c0.934-0.447,1.942-0.673,2.995-0.673c0.496,0,0.993,0.053,1.475,0.158l0.161-0.741
					C266.692,463.222,266.142,463.163,265.592,463.163z"/>
				<path id="XMLID_1049_" style="fill:#1C252C;" d="M272.194,465.711c0.331-0.04,0.566-0.341,0.526-0.672
					c-0.04-0.331-0.341-0.566-0.672-0.526c-0.309,0.038-0.535,0.304-0.53,0.609l-0.416,0.363c-0.418-0.43-0.889-0.813-1.408-1.139
					l-0.404,0.641c1.134,0.715,2.021,1.726,2.563,2.925l0.69-0.313c-0.251-0.554-0.567-1.072-0.942-1.545l0.402-0.351
					C272.065,465.716,272.129,465.719,272.194,465.711z"/>
				<path id="XMLID_1048_" style="fill:#1C252C;" d="M265.044,473.372c-0.386,0.023-0.775,0.035-1.157,0.035
					c-0.88,0-1.733-0.061-2.478-0.179c-0.39-0.062-0.846-0.155-1.27-0.292c1.046,1.861,3.069,3.125,5.388,3.125
					c2.855,0,5.262-1.916,5.95-4.504c-0.682,0.449-1.505,0.825-2.459,1.123C267.839,473.047,266.463,473.286,265.044,473.372z"/>
				<path id="XMLID_1044_" style="fill:#1C252C;" d="M265.592,464.68c-3.352,0-6.08,2.666-6.08,5.943
					c0,0.426,0.046,0.849,0.137,1.261c0.673,0.483,2.706,0.89,5.348,0.731c2.879-0.173,5.297-0.957,6.672-2.159
					c-0.006-0.195-0.021-0.39-0.045-0.582C271.244,466.913,268.65,464.68,265.592,464.68z M263.432,471.194
					c-1.02,0-1.85-0.83-1.85-1.85c0-1.02,0.83-1.85,1.85-1.85c1.02,0,1.85,0.83,1.85,1.85
					C265.282,470.365,264.452,471.194,263.432,471.194z M268.17,470.286c-0.75,0-1.36-0.61-1.36-1.36s0.61-1.361,1.36-1.361
					c0.75,0,1.361,0.61,1.361,1.361S268.92,470.286,268.17,470.286z"/>
			</g>
			<path id="XMLID_1041_" style="fill:#1C252C;" d="M281.595,466.547c-0.295-0.116-0.805-0.309-1.382-0.237
				c-0.551,0.069-0.844,0.341-0.844,1.007v0.866h2.228v1.717h-2.228v5.455h-1.932v-5.455h-1.34v-1.717h1.34v-0.888
				c0-1.68,0.896-2.783,2.568-2.783c0.643,0,1.157,0.122,1.59,0.308L281.595,466.547z"/>
			<path id="XMLID_1039_" style="fill:#1C252C;" d="M286.298,469.879c-0.177-0.03-0.358-0.046-0.526-0.046
				c-0.896,0-1.51,0.548-1.51,1.614v3.908h-1.932v-7.172h1.873v0.785c0.451-0.673,1.14-0.977,2.021-0.977
				c0.414,0,0.848,0.128,1.094,0.337L286.298,469.879z"/>
			<path id="XMLID_88_" style="fill:#1C252C;" d="M293.965,471.757c0,0.222-0.015,0.489-0.037,0.651h-5.085
				c0.207,1.036,0.933,1.488,1.843,1.488c0.622,0,1.295-0.252,1.813-0.688l1.133,1.243c-0.814,0.748-1.85,1.088-3.057,1.088
				c-2.198,0-3.723-1.495-3.723-3.753c0-2.258,1.48-3.797,3.627-3.797C292.544,467.99,293.958,469.522,293.965,471.757z
				 M288.851,471.091h3.175c-0.177-0.918-0.733-1.436-1.562-1.436C289.554,469.655,289.021,470.203,288.851,471.091z"/>
			<path id="XMLID_85_" style="fill:#1C252C;" d="M301.618,471.757c0,0.222-0.015,0.489-0.037,0.651h-5.085
				c0.207,1.036,0.933,1.488,1.843,1.488c0.622,0,1.295-0.252,1.814-0.688l1.132,1.243c-0.814,0.748-1.85,1.088-3.057,1.088
				c-2.198,0-3.723-1.495-3.723-3.753c0-2.258,1.48-3.797,3.627-3.797C300.197,467.99,301.611,469.522,301.618,471.757z
				 M296.504,471.091h3.175c-0.178-0.918-0.733-1.436-1.562-1.436C297.207,469.655,296.674,470.203,296.504,471.091z"/>
			<path id="XMLID_62_" style="fill:#1C252C;" d="M309.964,471.764c0,2.154-1.495,3.775-3.471,3.775
				c-0.962,0-1.643-0.378-2.109-0.933v3.708h-1.924v-10.133h1.887v0.792c0.466-0.585,1.155-0.984,2.139-0.984
				C308.469,467.99,309.964,469.61,309.964,471.764z M304.287,471.764c0,1.132,0.748,1.976,1.843,1.976
				c1.14,0,1.85-0.881,1.85-1.976c0-1.095-0.71-1.976-1.85-1.976C305.035,469.788,304.287,470.632,304.287,471.764z"/>
			<path id="XMLID_9_" style="fill:#1C252C;" d="M313.068,465.836c0,0.696-0.54,1.229-1.236,1.229c-0.696,0-1.229-0.533-1.229-1.229
				c0-0.696,0.533-1.243,1.229-1.243C312.527,464.592,313.068,465.14,313.068,465.836z M312.809,475.354h-1.932v-7.172h1.932
				V475.354z"/>
			<path id="XMLID_3_" style="fill:#1C252C;" d="M316.032,470.736l2.701-2.554h2.368l-3.479,3.375l3.501,3.797h-2.376l-2.716-2.901
				v2.901H314.1v-10.658h1.932V470.736z"/>
		</g>
		<g>
			<path style="fill:#1C252C;" d="M184.412,475.289v-1.055c-0.527,0.718-1.391,1.23-2.387,1.23c-1.846,0-3.149-1.406-3.149-3.706
				c0-2.256,1.289-3.721,3.149-3.721c0.952,0,1.816,0.469,2.387,1.245v-3.765h1.099v9.77H184.412z M184.412,473.37v-3.208
				c-0.395-0.615-1.245-1.143-2.124-1.143c-1.421,0-2.27,1.172-2.27,2.739c0,1.567,0.85,2.724,2.27,2.724
				C183.168,474.483,184.017,473.986,184.412,473.37z"/>
			<path style="fill:#1C252C;" d="M186.932,471.744c0-2.051,1.465-3.706,3.486-3.706c2.139,0,3.398,1.67,3.398,3.794v0.279h-5.727
				c0.088,1.333,1.025,2.446,2.549,2.446c0.805,0,1.626-0.322,2.182-0.894l0.527,0.718c-0.703,0.703-1.655,1.084-2.812,1.084
				C188.44,475.465,186.932,473.956,186.932,471.744z M190.403,468.947c-1.509,0-2.256,1.274-2.314,2.358h4.643
				C192.718,470.25,192.015,468.947,190.403,468.947z"/>
			<path style="fill:#1C252C;" d="M194.607,474.351l0.571-0.791c0.469,0.542,1.362,1.011,2.329,1.011c1.084,0,1.67-0.513,1.67-1.216
				c0-1.714-4.38-0.659-4.38-3.281c0-1.098,0.952-2.036,2.636-2.036c1.201,0,2.051,0.454,2.622,1.026l-0.513,0.762
				c-0.424-0.513-1.201-0.894-2.109-0.894c-0.967,0-1.567,0.483-1.567,1.113c0,1.552,4.38,0.527,4.38,3.281
				c0,1.187-0.952,2.138-2.783,2.138C196.306,475.465,195.325,475.113,194.607,474.351z"/>
			<path style="fill:#1C252C;" d="M201.477,466.471c0-0.41,0.337-0.747,0.732-0.747c0.41,0,0.747,0.337,0.747,0.747
				c0,0.41-0.337,0.732-0.747,0.732C201.814,467.203,201.477,466.881,201.477,466.471z M201.667,475.289v-7.075h1.099v7.075H201.667
				z"/>
			<path style="fill:#1C252C;" d="M204.582,477.105l0.556-0.82c0.586,0.703,1.289,0.967,2.3,0.967c1.172,0,2.27-0.571,2.27-2.124
				v-1.011c-0.513,0.718-1.377,1.26-2.373,1.26c-1.845,0-3.149-1.377-3.149-3.662c0-2.27,1.289-3.677,3.149-3.677
				c0.952,0,1.802,0.469,2.373,1.245v-1.069h1.098v6.87c0,2.344-1.641,3.076-3.369,3.076
				C206.237,478.16,205.417,477.926,204.582,477.105z M209.709,473.253v-3.091c-0.381-0.615-1.23-1.143-2.109-1.143
				c-1.421,0-2.27,1.128-2.27,2.695c0,1.553,0.849,2.695,2.27,2.695C208.478,474.41,209.328,473.868,209.709,473.253z"/>
			<path style="fill:#1C252C;" d="M217.413,475.289v-4.629c0-1.245-0.63-1.641-1.582-1.641c-0.865,0-1.685,0.527-2.095,1.099v5.17
				h-1.099v-7.075h1.099v1.025c0.498-0.586,1.464-1.201,2.519-1.201c1.48,0,2.256,0.747,2.256,2.285v4.966H217.413z"/>
			<path style="fill:#1C252C;" d="M219.932,471.744c0-2.051,1.465-3.706,3.486-3.706c2.139,0,3.398,1.67,3.398,3.794v0.279h-5.727
				c0.088,1.333,1.025,2.446,2.549,2.446c0.806,0,1.626-0.322,2.183-0.894l0.527,0.718c-0.703,0.703-1.655,1.084-2.812,1.084
				C221.441,475.465,219.932,473.956,219.932,471.744z M223.404,468.947c-1.509,0-2.256,1.274-2.314,2.358h4.643
				C225.718,470.25,225.015,468.947,223.404,468.947z"/>
			<path style="fill:#1C252C;" d="M233.35,475.289v-1.055c-0.527,0.718-1.392,1.23-2.388,1.23c-1.846,0-3.149-1.406-3.149-3.706
				c0-2.256,1.289-3.721,3.149-3.721c0.952,0,1.817,0.469,2.388,1.245v-3.765h1.098v9.77H233.35z M233.35,473.37v-3.208
				c-0.396-0.615-1.245-1.143-2.124-1.143c-1.421,0-2.27,1.172-2.27,2.739c0,1.567,0.849,2.724,2.27,2.724
				C232.105,474.483,232.954,473.986,233.35,473.37z"/>
			<path style="fill:#1C252C;" d="M239.692,475.289v-9.77h1.098v3.765c0.572-0.776,1.421-1.245,2.388-1.245
				c1.845,0,3.149,1.465,3.149,3.721c0,2.299-1.304,3.706-3.149,3.706c-0.996,0-1.86-0.513-2.388-1.23v1.055H239.692z
				 M242.9,474.483c1.436,0,2.285-1.157,2.285-2.724c0-1.568-0.85-2.739-2.285-2.739c-0.864,0-1.728,0.527-2.109,1.143v3.208
				C241.171,473.986,242.036,474.483,242.9,474.483z"/>
			<path style="fill:#1C252C;" d="M247.528,477.061c0.161,0.073,0.425,0.117,0.601,0.117c0.483,0,0.805-0.161,1.055-0.747
				l0.469-1.069l-2.959-7.148h1.187l2.358,5.8l2.344-5.8h1.201l-3.545,8.51c-0.425,1.025-1.143,1.421-2.08,1.435
				c-0.234,0-0.601-0.044-0.805-0.103L247.528,477.061z"/>
		</g>
	</g>
</g>
</svg>
